<svg xmlns="http://www.w3.org/2000/svg" viewBox="0 0 80 67.27"><defs><style>.cls-1{fill:#3472b9;}</style></defs><g id="Layer_2" data-name="Layer 2"><g id="Layer_3" data-name="Layer 3"><path class="cls-1" d="M71.64,0H8.36A8.37,8.37,0,0,0,0,8.36V48a8.37,8.37,0,0,0,8.36,8.36H27.27v7.28H23.91a1.82,1.82,0,1,0,0,3.63H56.36a1.82,1.82,0,1,0,0-3.63H52.73V56.36H71.64A8.37,8.37,0,0,0,80,48V8.36A8.37,8.37,0,0,0,71.64,0ZM49.09,56.36v7.28H30.91V56.36ZM3.64,8.36A4.73,4.73,0,0,1,8.36,3.64H71.64a4.73,4.73,0,0,1,4.72,4.72V43.67c-.06,0-.11,0-.18,0H3.64Zm68,44.37H8.36A4.73,4.73,0,0,1,3.64,48v-.73H76.18c.07,0,.12,0,.18,0V48A4.73,4.73,0,0,1,71.64,52.73Z"/></g></g></svg>