<svg xmlns="http://www.w3.org/2000/svg" viewBox="0 0 39.51 69.72"><defs><style>.cls-1{fill:#0071bc;}</style></defs><g id="Layer_2" data-name="Layer 2"><g id="Layer_3" data-name="Layer 3"><path class="cls-1" d="M25.56,3.49H13.94a1.16,1.16,0,0,0,0,2.32H25.56a1.16,1.16,0,1,0,0-2.32Z"/><path class="cls-1" d="M33.7,3.49H32.53a1.16,1.16,0,0,0,0,2.32H33.7a1.16,1.16,0,0,0,0-2.32Z"/><path class="cls-1" d="M21.2,59.26H18.31a3.2,3.2,0,0,0-3.2,3.2V63a3.2,3.2,0,0,0,3.2,3.2h2.88A3.21,3.21,0,0,0,24.4,63v-.57A3.21,3.21,0,0,0,21.2,59.26ZM22.08,63a.89.89,0,0,1-.88.88H18.31a.88.88,0,0,1-.88-.88v-.57a.88.88,0,0,1,.88-.88h2.88a.89.89,0,0,1,.89.88Z"/><path class="cls-1" d="M35.31,0H4.2A4.2,4.2,0,0,0,0,4.2V65.52a4.21,4.21,0,0,0,4.2,4.2H35.31a4.21,4.21,0,0,0,4.2-4.2V4.2A4.21,4.21,0,0,0,35.31,0Zm1.87,65.52a1.87,1.87,0,0,1-1.87,1.87H4.2a1.88,1.88,0,0,1-1.88-1.87V4.2A1.89,1.89,0,0,1,4.2,2.32H35.31A1.88,1.88,0,0,1,37.18,4.2V65.52Z"/><path class="cls-1" d="M38.34,7H1.16A1.16,1.16,0,0,0,0,8.13v48.8A1.16,1.16,0,0,0,1.16,58.1H38.34a1.17,1.17,0,0,0,1.17-1.17V8.13A1.16,1.16,0,0,0,38.34,7Zm-1.16,48.8H2.32V9.3H37.18Z"/></g></g></svg>